<svg width="152" height="40" viewBox="0 0 152 40" fill="none" xmlns="http://www.w3.org/2000/svg">
<g id="App Store" clip-path="url(#clip0_3_780)">
<g id="Group">
<g id="Group_2">
<path id="Vector" d="M142.368 9e-05H10.1419C9.77516 9e-05 9.41286 9e-05 9.04713 0.00209C8.74098 0.00409 8.43727 0.0099 8.12818 0.01479C7.45669 0.0226918 6.78678 0.0817663 6.12428 0.1915C5.4627 0.303623 4.82185 0.515006 4.2234 0.8185C3.62568 1.12456 3.07952 1.52226 2.60475 1.99716C2.12748 2.47073 1.72964 3.01811 1.42653 3.61825C1.12258 4.2172 0.911818 4.85903 0.801528 5.52157C0.690189 6.18328 0.630276 6.85261 0.622328 7.52357C0.613048 7.83017 0.612068 8.13779 0.607178 8.44443V31.5587C0.612068 31.8692 0.613048 32.17 0.622328 32.4806C0.630279 33.1515 0.690191 33.8208 0.801528 34.4825C0.911514 35.1454 1.12229 35.7876 1.42653 36.3868C1.7295 36.985 2.1274 37.5302 2.60475 38.0011C3.07772 38.4781 3.62423 38.8761 4.2234 39.1798C4.82185 39.4841 5.46263 39.6967 6.12428 39.8106C6.7869 39.9194 7.45674 39.9785 8.12818 39.9874C8.43727 39.9942 8.74098 39.9981 9.04713 39.9981C9.41285 40.0001 9.77518 40.0001 10.1419 40.0001H142.368C142.727 40.0001 143.093 40.0001 143.452 39.9981C143.757 39.9981 144.069 39.9942 144.374 39.9874C145.044 39.979 145.713 39.9199 146.374 39.8106C147.038 39.6959 147.681 39.4834 148.282 39.1798C148.881 38.8759 149.427 38.4779 149.899 38.0011C150.375 37.5283 150.774 36.9835 151.081 36.3868C151.383 35.7872 151.592 35.145 151.7 34.4825C151.812 33.8207 151.874 33.1516 151.886 32.4806C151.89 32.17 151.89 31.8692 151.89 31.5587C151.897 31.1954 151.897 30.8341 151.897 30.4649V9.53622C151.897 9.17001 151.897 8.80673 151.89 8.44443C151.89 8.13779 151.89 7.83017 151.886 7.52353C151.874 6.85251 151.812 6.18333 151.7 5.52153C151.591 4.85937 151.383 4.21759 151.081 3.61821C150.464 2.41531 149.485 1.43615 148.282 0.81845C147.681 0.515697 147.038 0.30437 146.374 0.19145C145.713 0.0812328 145.044 0.0221378 144.374 0.01469C144.069 0.00981 143.757 0.00395 143.452 0.002C143.093 0 142.727 9e-05 142.368 9e-05Z" fill="#A6A6A6"/>
<path id="Vector_2" d="M9.05198 39.125C8.7473 39.125 8.44998 39.1211 8.14769 39.1143C7.52148 39.1061 6.89672 39.0516 6.27855 38.9512C5.70214 38.8519 5.14376 38.6673 4.62181 38.4033C4.10466 38.1415 3.63297 37.7983 3.22481 37.3867C2.81075 36.98 2.46603 36.5082 2.2043 35.9902C1.93969 35.4688 1.75657 34.9099 1.6613 34.333C1.55843 33.7131 1.50277 33.0863 1.4948 32.458C1.48846 32.2471 1.48016 31.5449 1.48016 31.5449V8.44434C1.48016 8.44434 1.489 7.75293 1.49485 7.5498C1.50248 6.92248 1.55782 6.29665 1.66038 5.67773C1.75582 5.09925 1.93909 4.53875 2.20384 4.01563C2.46461 3.49794 2.80742 3.02586 3.21898 2.61768C3.63009 2.20562 4.10329 1.8606 4.62132 1.59521C5.14207 1.33209 5.6994 1.14873 6.27464 1.05127C6.89484 0.949836 7.52176 0.894996 8.15015 0.88721L9.05247 0.875H143.447L144.36 0.8877C144.983 0.895099 145.604 0.94945 146.219 1.05029C146.8 1.14898 147.363 1.33362 147.89 1.59814C148.927 2.13299 149.772 2.97916 150.305 4.01807C150.565 4.53758 150.746 5.09351 150.84 5.66699C150.944 6.29099 151.002 6.92174 151.014 7.5542C151.016 7.8374 151.016 8.1416 151.016 8.44434C151.024 8.81934 151.024 9.17627 151.024 9.53613V30.4648C151.024 30.8281 151.024 31.1826 151.016 31.54C151.016 31.8652 151.016 32.1631 151.013 32.4697C151.001 33.0909 150.944 33.7104 150.842 34.3232C150.748 34.9043 150.566 35.4675 150.302 35.9932C150.038 36.5056 149.695 36.9733 149.286 37.3789C148.878 37.7927 148.405 38.1379 147.887 38.4014C147.361 38.6674 146.799 38.8527 146.219 38.9512C145.601 39.0522 144.976 39.1067 144.349 39.1143C144.057 39.1211 143.75 39.125 143.452 39.125L142.368 39.127L9.05198 39.125Z" fill="black"/>
</g>
<g id="&#60;Group&#62;">
<g id="&#60;Group&#62;_2">
<path id="&#60;Path&#62;" d="M25.376 20.3006C25.3868 19.4659 25.6085 18.6475 26.0205 17.9216C26.4326 17.1956 27.0215 16.5857 27.7326 16.1485C27.2809 15.5034 26.6849 14.9724 25.9921 14.5979C25.2993 14.2233 24.5287 14.0155 23.7414 13.9908C22.0622 13.8146 20.4343 14.9957 19.5785 14.9957C18.7063 14.9957 17.3888 14.0083 15.97 14.0375C15.0524 14.0672 14.158 14.334 13.3741 14.8121C12.5903 15.2901 11.9436 15.9631 11.4971 16.7654C9.56313 20.1138 11.0057 25.0349 12.8583 27.7415C13.7852 29.0668 14.8685 30.5473 16.286 30.4948C17.673 30.4372 18.1911 29.6103 19.8654 29.6103C21.5241 29.6103 22.0101 30.4948 23.4564 30.4614C24.9447 30.4372 25.8825 29.1302 26.7769 27.7923C27.4428 26.8479 27.9553 25.8042 28.2953 24.6997C27.4306 24.334 26.6927 23.7218 26.1735 22.9395C25.6544 22.1572 25.3771 21.2394 25.376 20.3006Z" fill="white"/>
<path id="&#60;Path&#62;_2" d="M22.6444 12.2108C23.456 11.2366 23.8558 9.98445 23.759 8.72021C22.5191 8.85044 21.3739 9.44299 20.5514 10.3798C20.1492 10.8375 19.8412 11.3699 19.645 11.9467C19.4488 12.5235 19.3681 13.1333 19.4077 13.7412C20.0278 13.7476 20.6413 13.6132 21.202 13.3481C21.7626 13.083 22.2558 12.6942 22.6444 12.2108Z" fill="white"/>
</g>
</g>
<g id="&#60;Group&#62;_3">
<g id="Group_3">
<path id="Vector_3" d="M36.1873 24.4829C36.1896 24.3738 36.224 24.2678 36.2863 24.1782C36.3485 24.0886 36.4359 24.0194 36.5373 23.9792C36.6388 23.939 36.7498 23.9296 36.8566 23.9523C36.9633 23.9749 37.061 24.0286 37.1374 24.1065C37.2138 24.1844 37.2654 24.2832 37.2859 24.3903C37.3065 24.4975 37.2949 24.6084 37.2527 24.709C37.2104 24.8096 37.1395 24.8955 37.0486 24.956C36.9578 25.0164 36.8511 25.0487 36.742 25.0488C36.6681 25.0492 36.5949 25.0347 36.5267 25.0062C36.4585 24.9778 36.3967 24.9359 36.345 24.8832C36.2933 24.8304 36.2527 24.7678 36.2256 24.699C36.1985 24.6303 36.1855 24.5568 36.1873 24.4829ZM36.2781 31.5703V25.6035H37.2049V31.5703H36.2781Z" fill="white"/>
<path id="Vector_4" d="M38.7205 27.0674H39.576V27.7823H39.6424C39.7552 27.5255 39.9452 27.3102 40.1861 27.1665C40.4269 27.0228 40.7066 26.9578 40.9861 26.9805C41.2052 26.964 41.4252 26.9971 41.6298 27.0772C41.8344 27.1573 42.0184 27.2824 42.1681 27.4432C42.3178 27.6041 42.4293 27.7965 42.4945 28.0063C42.5597 28.2162 42.5769 28.438 42.5447 28.6553V31.5703H41.6561V28.878C41.6561 28.1543 41.3416 27.795 40.6844 27.795C40.5357 27.788 40.3872 27.8133 40.2492 27.8691C40.1111 27.9249 39.9868 28.0099 39.8847 28.1182C39.7826 28.2266 39.7051 28.3557 39.6575 28.4968C39.61 28.6379 39.5935 28.7876 39.6092 28.9356V31.5704H38.7205V27.0674Z" fill="white"/>
<path id="Vector_5" d="M43.6961 29.3164C43.6961 27.8936 44.4276 26.9922 45.5652 26.9922C45.8466 26.9793 46.1259 27.0468 46.3704 27.1867C46.6149 27.3265 46.8146 27.5331 46.9461 27.7822H47.0125V25.3096H47.9012V31.5703H47.0496V30.8584H46.9793C46.8377 31.106 46.6311 31.3101 46.3819 31.4486C46.1326 31.5872 45.8502 31.6549 45.5652 31.6445C44.4197 31.6445 43.6961 30.7432 43.6961 29.3164ZM44.6141 29.3164C44.6141 30.2715 45.0643 30.8467 45.8172 30.8467C46.5662 30.8467 47.0291 30.2637 47.0291 29.3203C47.0291 28.3818 46.5614 27.791 45.8172 27.791C45.0691 27.791 44.6141 28.3691 44.6141 29.3164Z" fill="white"/>
<path id="Vector_6" d="M49.2429 25.7354C49.2362 25.6203 49.2641 25.5058 49.3232 25.4068C49.3822 25.3078 49.4696 25.2288 49.5741 25.18C49.6785 25.1313 49.7952 25.115 49.909 25.1333C50.0228 25.1516 50.1285 25.2036 50.2124 25.2827C50.2963 25.3617 50.3546 25.4642 50.3796 25.5767C50.4046 25.6892 50.3953 25.8067 50.3528 25.9138C50.3103 26.021 50.2366 26.1129 50.1413 26.1777C50.046 26.2426 49.9334 26.2773 49.8181 26.2774C49.7444 26.2811 49.6707 26.2699 49.6014 26.2444C49.5321 26.219 49.4686 26.1797 49.4149 26.1291C49.3612 26.0784 49.3182 26.0175 49.2887 25.9498C49.2591 25.8821 49.2436 25.8092 49.2429 25.7354ZM49.3748 27.0674H50.2605V31.5703H49.3748V27.0674Z" fill="white"/>
<path id="Vector_7" d="M51.6942 27.0674H52.5496V27.7579H52.616C52.7118 27.5181 52.881 27.3149 53.0994 27.1773C53.3179 27.0398 53.5743 26.975 53.8319 26.9922C53.9649 26.9907 54.0978 27.0031 54.2283 27.0293V27.9063C54.0652 27.8717 53.899 27.8537 53.7322 27.8526C53.5857 27.8395 53.438 27.8571 53.2986 27.9044C53.1593 27.9518 53.0314 28.0277 52.9231 28.1274C52.8149 28.2271 52.7287 28.3483 52.6701 28.4833C52.6115 28.6183 52.5818 28.7641 52.5828 28.9112V31.5704H51.6942L51.6942 27.0674Z" fill="white"/>
<path id="Vector_8" d="M55.1609 25.7354C55.1542 25.6203 55.1821 25.5058 55.2411 25.4068C55.3002 25.3078 55.3876 25.2288 55.492 25.18C55.5965 25.1313 55.7132 25.115 55.827 25.1333C55.9408 25.1516 56.0465 25.2036 56.1304 25.2827C56.2143 25.3617 56.2725 25.4642 56.2976 25.5767C56.3226 25.6892 56.3133 25.8067 56.2708 25.9138C56.2283 26.021 56.1546 26.1129 56.0593 26.1777C55.964 26.2426 55.8514 26.2773 55.7361 26.2774C55.6624 26.2811 55.5886 26.2699 55.5193 26.2444C55.45 26.219 55.3866 26.1797 55.3329 26.1291C55.2791 26.0784 55.2362 26.0175 55.2066 25.9498C55.1771 25.8821 55.1615 25.8092 55.1609 25.7354ZM55.2927 27.0674H56.1785V31.5703H55.2927V27.0674Z" fill="white"/>
<path id="Vector_9" d="M57.6121 27.0674H58.4676V27.7823H58.534C58.6468 27.5255 58.8368 27.3102 59.0777 27.1665C59.3185 27.0228 59.5982 26.9578 59.8778 26.9805C60.0968 26.964 60.3168 26.9971 60.5214 27.0772C60.726 27.1573 60.91 27.2824 61.0597 27.4432C61.2094 27.6041 61.3209 27.7965 61.3861 28.0063C61.4513 28.2162 61.4685 28.438 61.4363 28.6553V31.5703H60.5477V28.878C60.5477 28.1543 60.2332 27.795 59.576 27.795C59.4273 27.788 59.2788 27.8133 59.1408 27.8691C59.0027 27.9249 58.8784 28.0099 58.7763 28.1182C58.6742 28.2266 58.5967 28.3557 58.5491 28.4968C58.5016 28.6379 58.4851 28.7876 58.5008 28.9356V31.5704H57.6121V27.0674Z" fill="white"/>
</g>
</g>
<g id="Group_4">
<path id="Vector_10" d="M42.9119 17.4771H38.1785L37.0417 20.8335H35.0369L39.5203 8.41553H41.6033L46.0867 20.8335H44.0476L42.9119 17.4771ZM38.6687 15.9282H42.4207L40.571 10.481H40.5193L38.6687 15.9282Z" fill="white"/>
<path id="Vector_11" d="M55.7693 16.3072C55.7693 19.1207 54.2635 20.9283 51.991 20.9283C51.4153 20.9584 50.8428 20.8258 50.339 20.5457C49.8353 20.2655 49.4205 19.8492 49.1424 19.3443H49.0994V23.8287H47.241V11.7799H49.0398V13.2857H49.074C49.3649 12.7833 49.7867 12.3691 50.2943 12.0872C50.8019 11.8054 51.3765 11.6664 51.9568 11.6851C54.2547 11.6851 55.7693 13.5015 55.7693 16.3072ZM53.8592 16.3072C53.8592 14.4742 52.9119 13.2691 51.4666 13.2691C50.0467 13.2691 49.0916 14.4996 49.0916 16.3072C49.0916 18.1314 50.0467 19.3531 51.4666 19.3531C52.9119 19.3531 53.8592 18.1568 53.8592 16.3072Z" fill="white"/>
<path id="Vector_12" d="M65.7336 16.3072C65.7336 19.1207 64.2283 20.9283 61.9558 20.9283C61.3801 20.9584 60.8076 20.8258 60.3038 20.5457C59.8 20.2656 59.3853 19.8492 59.1072 19.3443H59.0642V23.8287H57.2057V11.7799H59.0046V13.2857H59.0388C59.3297 12.7833 59.7514 12.3691 60.2591 12.0872C60.7667 11.8054 61.3412 11.6664 61.9216 11.6851C64.2195 11.6851 65.7336 13.5015 65.7336 16.3072ZM63.824 16.3072C63.824 14.4742 62.8767 13.2691 61.4314 13.2691C60.0115 13.2691 59.0564 14.4996 59.0564 16.3072C59.0564 18.1314 60.0115 19.3531 61.4314 19.3531C62.8767 19.3531 63.824 18.1568 63.824 16.3072Z" fill="white"/>
<path id="Vector_13" d="M72.3196 17.3736C72.4573 18.605 73.6536 19.4136 75.2884 19.4136C76.8548 19.4136 77.9817 18.605 77.9817 17.4946C77.9817 16.5308 77.302 15.9536 75.6927 15.5581L74.0833 15.1704C71.803 14.6196 70.7444 13.5532 70.7444 11.8228C70.7444 9.68018 72.6116 8.2085 75.263 8.2085C77.887 8.2085 79.6858 9.68018 79.7464 11.8228H77.8704C77.7581 10.5835 76.7336 9.83546 75.2366 9.83546C73.7395 9.83546 72.7151 10.5923 72.7151 11.6939C72.7151 12.5718 73.3694 13.0884 74.97 13.4839L76.3381 13.8198C78.886 14.4223 79.9446 15.4458 79.9446 17.2622C79.9446 19.5854 78.094 21.0405 75.1506 21.0405C72.3967 21.0405 70.5374 19.6196 70.4172 17.3735L72.3196 17.3736Z" fill="white"/>
<path id="Vector_14" d="M83.9553 9.63721V11.7798H85.677V13.2515H83.9553V18.2427C83.9553 19.0181 84.3 19.3794 85.0569 19.3794C85.2613 19.3758 85.4653 19.3615 85.6682 19.3364V20.7993C85.3279 20.8629 84.9821 20.8917 84.636 20.8852C82.803 20.8852 82.0881 20.1967 82.0881 18.4409V13.2515H80.7717V11.7798H82.0882V9.63721H83.9553Z" fill="white"/>
<path id="Vector_15" d="M86.6741 16.3071C86.6741 13.4585 88.3518 11.6685 90.968 11.6685C93.593 11.6685 95.2629 13.4585 95.2629 16.3071C95.2629 19.1636 93.6018 20.9458 90.968 20.9458C88.3352 20.9458 86.6741 19.1636 86.6741 16.3071ZM93.3694 16.3071C93.3694 14.353 92.4739 13.1997 90.968 13.1997C89.4622 13.1997 88.5676 14.3618 88.5676 16.3071C88.5676 18.269 89.4622 19.4136 90.968 19.4136C92.4739 19.4136 93.3694 18.269 93.3694 16.3071Z" fill="white"/>
<path id="Vector_16" d="M96.7952 11.7798H98.5676V13.3208H98.6106C98.7305 12.8395 99.0125 12.4142 99.4091 12.1163C99.8057 11.8184 100.293 11.6661 100.788 11.685C101.003 11.6843 101.216 11.7076 101.425 11.7544V13.4927C101.155 13.41 100.873 13.3721 100.59 13.3804C100.32 13.3694 100.051 13.417 99.8011 13.5199C99.5513 13.6228 99.3266 13.7785 99.1427 13.9764C98.9587 14.1743 98.8197 14.4097 98.7353 14.6663C98.6509 14.923 98.623 15.1949 98.6535 15.4634V20.8335H96.7952V11.7798Z" fill="white"/>
<path id="Vector_17" d="M109.993 18.1743C109.743 19.8179 108.143 20.9458 106.095 20.9458C103.461 20.9458 101.826 19.1811 101.826 16.3501C101.826 13.5103 103.47 11.6685 106.017 11.6685C108.522 11.6685 110.097 13.3892 110.097 16.1343V16.771H103.702V16.8833C103.673 17.2165 103.715 17.5522 103.825 17.868C103.935 18.1838 104.111 18.4726 104.341 18.7152C104.572 18.9577 104.851 19.1485 105.161 19.2748C105.471 19.4011 105.804 19.4601 106.138 19.4477C106.577 19.4889 107.018 19.3872 107.395 19.1577C107.771 18.9283 108.064 18.5834 108.229 18.1743L109.993 18.1743ZM103.711 15.4722H108.238C108.254 15.1726 108.209 14.8728 108.104 14.5916C107.999 14.3103 107.838 14.0538 107.629 13.838C107.421 13.6223 107.17 13.4519 106.892 13.3377C106.615 13.2235 106.317 13.1679 106.017 13.1743C105.714 13.1725 105.414 13.2307 105.134 13.3454C104.854 13.4601 104.6 13.6292 104.385 13.8428C104.171 14.0565 104.001 14.3104 103.885 14.5901C103.77 14.8697 103.71 15.1695 103.711 15.4722Z" fill="white"/>
<path id="Vector_18" d="M111.345 12.9595L112.361 8.41553H114.167L112.937 12.9595H111.345Z" fill="white"/>
<path id="Vector_19" d="M114.086 16.3071C114.086 13.5103 115.626 11.6851 117.872 11.6851C118.449 11.6564 119.021 11.7915 119.524 12.0748C120.026 12.358 120.438 12.7779 120.712 13.2856H120.747V8.41553H122.615V20.8335H120.807V19.2935H120.773C120.497 19.8118 120.08 20.2409 119.569 20.5304C119.059 20.82 118.476 20.958 117.89 20.9283C115.626 20.9282 114.086 19.104 114.086 16.3071ZM115.988 16.3071C115.988 18.1655 116.935 19.353 118.38 19.353C119.809 19.353 120.764 18.1479 120.764 16.3071C120.764 14.4819 119.809 13.269 118.38 13.269C116.935 13.269 115.988 14.4653 115.988 16.3071Z" fill="white"/>
<path id="Vector_20" d="M124.252 18.2603C124.252 16.6773 125.465 15.7212 127.616 15.5923L130.095 15.4546V14.7661C130.095 13.7593 129.433 13.1909 128.306 13.1909C127.888 13.1352 127.464 13.2339 127.114 13.4686C126.764 13.7032 126.511 14.0577 126.404 14.4653H124.665C124.717 12.8296 126.239 11.6685 128.357 11.6685C130.517 11.6685 131.946 12.8472 131.946 14.6285V20.8335H130.164V19.3443H130.121C129.836 19.8493 129.42 20.2683 128.918 20.5576C128.415 20.8469 127.844 20.9958 127.264 20.9888C126.883 21.0261 126.499 20.9833 126.135 20.8632C125.772 20.743 125.438 20.5482 125.154 20.2913C124.87 20.0343 124.644 19.7209 124.488 19.3712C124.333 19.0214 124.253 18.643 124.252 18.2603ZM130.095 17.4429V16.7456L127.866 16.8833C126.756 16.9527 126.128 17.4341 126.128 18.2085C126.128 19.0005 126.782 19.5171 127.78 19.5171C128.069 19.5367 128.359 19.4983 128.633 19.404C128.907 19.3097 129.16 19.1615 129.375 18.9682C129.591 18.7749 129.766 18.5403 129.889 18.2784C130.013 18.0164 130.083 17.7323 130.095 17.4429Z" fill="white"/>
<path id="Vector_21" d="M133.839 11.7798H135.612V13.3208H135.655C135.906 12.79 136.314 12.3485 136.823 12.0549C137.332 11.7613 137.918 11.6296 138.503 11.6773C140.5 11.6773 141.645 12.9595 141.645 15.0327V20.8335H139.778V15.394C139.778 14.0347 139.149 13.2778 137.841 13.2778C137.54 13.2702 137.242 13.3272 136.965 13.4449C136.688 13.5626 136.44 13.7383 136.236 13.9602C136.033 14.182 135.88 14.4449 135.787 14.731C135.694 15.017 135.664 15.3197 135.698 15.6186V20.8335H133.839V11.7798Z" fill="white"/>
</g>
</g>
</g>
<defs>
<clipPath id="clip0_3_780">
<rect width="151.29" height="40" fill="white" transform="translate(0.607178)"/>
</clipPath>
</defs>
</svg>
