<svg width="139" height="40" viewBox="0 0 139 40" fill="none" xmlns="http://www.w3.org/2000/svg">
<g id="Google Play" clip-path="url(#clip0_3_756)">
<g id="Clip path group">
<mask id="mask0_3_756" style="mask-type:luminance" maskUnits="userSpaceOnUse" x="0" y="0" width="139" height="40">
<g id="clippath">
<path id="Vector" d="M138.17 0H0.897339V40H138.17V0Z" fill="white"/>
</g>
</mask>
<g mask="url(#mask0_3_756)">
<g id="Group">
<g id="Clip path group_2">
<mask id="mask1_3_756" style="mask-type:luminance" maskUnits="userSpaceOnUse" x="0" y="0" width="139" height="40">
<g id="clippath-1">
<path id="Vector_2" d="M138.17 0H0.897339V40H138.17V0Z" fill="white"/>
</g>
</mask>
<g mask="url(#mask1_3_756)">
<g id="Group_2">
<path id="Vector_3" d="M133.085 40H5.98238C3.18593 40 0.897339 37.7493 0.897339 34.9992V5.00078C0.897339 2.25067 3.18593 0 5.98238 0H133.087C135.884 0 138.172 2.25067 138.172 5.00078V35.0013C138.172 37.7514 135.884 40.0021 133.087 40.0021" fill="black"/>
<path id="Vector_4" d="M133.085 0.800376C135.439 0.800376 137.356 2.68534 137.356 5.00078V35.0013C137.356 37.3168 135.439 39.2017 133.085 39.2017H5.98238C3.62792 39.2017 1.7112 37.3168 1.7112 35.0013V5.00078C1.7112 2.68325 3.62579 0.800376 5.98238 0.800376H133.087H133.085ZM133.085 0H5.98238C3.18593 0 0.897339 2.25067 0.897339 5.00078V35.0013C0.897339 37.7514 3.18593 40.0021 5.98238 40.0021H133.087C135.884 40.0021 138.172 37.7514 138.172 35.0013V5.00078C138.17 2.25067 135.881 0 133.085 0Z" fill="#A6A5A5"/>
<path id="Vector_5" d="M70.1797 21.7502C67.7891 21.7502 65.8384 23.539 65.8384 26.0049C65.8384 28.4708 67.787 30.2576 70.1797 30.2576C72.5724 30.2576 74.521 28.452 74.521 26.0049C74.521 23.5578 72.5724 21.7502 70.1797 21.7502ZM70.1797 28.5816C68.8686 28.5816 67.7381 27.5179 67.7381 26.0049C67.7381 24.4919 68.8686 23.4262 70.1797 23.4262C71.4908 23.4262 72.6191 24.4731 72.6191 26.0049C72.6191 27.5367 71.4887 28.5816 70.1797 28.5816ZM60.7087 21.7502C58.3181 21.7502 56.3674 23.539 56.3674 26.0049C56.3674 28.4708 58.316 30.2576 60.7087 30.2576C63.1014 30.2576 65.05 28.452 65.05 26.0049C65.05 23.5578 63.0993 21.7502 60.7087 21.7502ZM60.7087 28.5816C59.3997 28.5816 58.2693 27.5179 58.2693 26.0049C58.2693 24.4919 59.3997 23.4262 60.7087 23.4262C62.0177 23.4262 63.1503 24.4731 63.1503 26.0049C63.1503 27.5367 62.0198 28.5816 60.7087 28.5816ZM49.4443 23.0563V24.8597H53.8345C53.7027 25.8754 53.3606 26.6151 52.8357 27.1313C52.1961 27.7603 51.1974 28.452 49.4443 28.452C46.7413 28.452 44.627 26.31 44.627 23.6519C44.627 20.9937 46.7392 18.8517 49.4443 18.8517C50.902 18.8517 51.9666 19.4138 52.7528 20.139L54.047 18.8663C52.9483 17.8361 51.4906 17.0461 49.4443 17.0461C45.7426 17.0461 42.6295 20.0115 42.6295 23.6519C42.6295 27.2922 45.7426 30.2576 49.4443 30.2576C51.4417 30.2576 52.9483 29.6118 54.1298 28.404C55.3411 27.2128 55.7193 25.5368 55.7193 24.1827C55.7193 23.7626 55.6874 23.3781 55.6216 23.0563H49.4464H49.4443ZM95.5156 24.4564C95.1544 23.5056 94.0579 21.7502 91.814 21.7502C89.57 21.7502 87.7361 23.4742 87.7361 26.0049C87.7361 28.3893 89.57 30.2576 92.0265 30.2576C94.009 30.2576 95.1544 29.0664 95.6304 28.3726L94.1557 27.4051C93.6627 28.1135 92.9933 28.5816 92.0243 28.5816C91.0553 28.5816 90.369 28.1469 89.927 27.2943L95.709 24.9412L95.5135 24.4585L95.5156 24.4564ZM89.6189 25.8754C89.57 24.2307 90.913 23.3948 91.8798 23.3948C92.6342 23.3948 93.2738 23.7647 93.4863 24.2976L89.621 25.8774L89.6189 25.8754ZM84.9163 29.9984H86.816V17.4975H84.9163V29.9984ZM81.8032 22.701H81.7374C81.3102 22.2016 80.4921 21.7502 79.4615 21.7502C77.2983 21.7502 75.3179 23.6184 75.3179 26.0196C75.3179 28.4207 77.3004 30.2555 79.4615 30.2555C80.4943 30.2555 81.3124 29.8041 81.7374 29.2879H81.8032V29.9002C81.8032 31.5281 80.9193 32.3975 79.4934 32.3975C78.3311 32.3975 77.6086 31.5762 77.3153 30.8845L75.66 31.5616C76.1338 32.69 77.3961 34.0756 79.4934 34.0756C81.7204 34.0756 83.6052 32.7862 83.6052 29.6453V22.0093H81.8032V22.7031V22.701ZM79.6252 28.5816C78.314 28.5816 77.2176 27.5033 77.2176 26.0216C77.2176 24.54 78.314 23.4283 79.6252 23.4283C80.9363 23.4283 81.935 24.5233 81.935 26.0216C81.935 27.52 80.9193 28.5816 79.6252 28.5816ZM104.417 17.4996H99.8718V30.0005H101.767V25.2652H104.417C106.521 25.2652 108.586 23.7668 108.586 21.3824C108.586 18.998 106.519 17.4996 104.417 17.4996ZM104.466 23.5244H101.767V19.2383H104.466C105.885 19.2383 106.691 20.3939 106.691 21.3803C106.691 22.3667 105.885 23.5223 104.466 23.5223M116.192 21.7272C114.819 21.7272 113.395 22.3228 112.806 23.6393L114.492 24.331C114.851 23.6393 115.522 23.4136 116.226 23.4136C117.207 23.4136 118.204 23.9925 118.221 25.0206V25.1502C117.877 24.958 117.141 24.6675 116.243 24.6675C114.428 24.6675 112.579 25.6476 112.579 27.4824C112.579 29.1563 114.069 30.2325 115.735 30.2325C117.012 30.2325 117.713 29.6704 118.155 29.01H118.221V29.9755H120.053V25.1816C120.053 22.9622 118.37 21.7251 116.194 21.7251M115.964 28.5753C115.342 28.5753 114.475 28.2702 114.475 27.5137C114.475 26.5483 115.554 26.1805 116.487 26.1805C117.32 26.1805 117.713 26.3581 118.221 26.5984C118.074 27.7561 117.061 28.5774 115.964 28.5774M126.725 21.9989L124.549 27.4197H124.483L122.226 21.9989H120.182L123.567 29.5742L121.638 33.7872H123.616L128.833 21.9989H126.723H126.725ZM109.636 29.9964H111.534V17.4954H109.636V29.9964Z" fill="white"/>
<path id="Vector_6" d="M21.9642 19.4243L11.1375 30.7236C11.1375 30.7236 11.1375 30.7278 11.1375 30.7299C11.469 31.9566 12.608 32.8594 13.9616 32.8594C14.5035 32.8594 15.0092 32.7152 15.4448 32.4644L15.4788 32.4435L27.6655 25.5285L21.9621 19.4222L21.9642 19.4243Z" fill="#EA4435"/>
<path id="Vector_7" d="M32.9163 17.4996L32.9057 17.4933L27.6443 14.4945L21.7178 19.6813L27.6655 25.5284L32.8972 22.5589C33.8152 22.0699 34.4378 21.119 34.4378 20.024C34.4378 18.929 33.8237 17.9886 32.9142 17.4996" fill="#F9BC15"/>
<path id="Vector_8" d="M11.1375 9.27637C11.0717 9.51251 11.0377 9.76119 11.0377 10.0161V29.9837C11.0377 30.2408 11.0717 30.4874 11.1375 30.7235L22.334 19.7126L11.1354 9.27637H11.1375Z" fill="#547DBF"/>
<path id="Vector_9" d="M22.0428 20.0011L27.6464 14.4925L15.4746 7.55243C15.0326 7.29121 14.5162 7.14075 13.9637 7.14075C12.6122 7.14075 11.4711 8.04561 11.1375 9.27439C11.1375 9.27439 11.1375 9.27439 11.1375 9.27648L22.045 20.0011H22.0428Z" fill="#33A851"/>
</g>
</g>
</g>
<g id="Group_3">
<path id="Vector_10" d="M43.505 6.05196C43.4009 5.94748 43.3499 5.82627 43.3499 5.68626C43.3499 5.54624 43.4009 5.41877 43.505 5.31637C43.607 5.21397 43.7303 5.16382 43.8727 5.16382C44.015 5.16382 44.1447 5.21397 44.2488 5.31637C44.3508 5.41877 44.4039 5.54206 44.4039 5.68626C44.4039 5.83045 44.3529 5.94748 44.2488 6.05196C44.1447 6.15645 44.0193 6.2087 43.8727 6.2087C43.726 6.2087 43.6092 6.15645 43.505 6.05196ZM43.386 6.90458H44.3593V13.1341H43.386V6.90458Z" fill="white"/>
<path id="Vector_11" d="M45.9594 6.90454H47.109L49.9755 11.4811H50.0287L49.9755 10.2795V6.90454H50.9403V13.1341H49.9309L46.9241 8.32348H46.871L46.9241 9.52509V13.1362H45.9594V6.90663V6.90454Z" fill="white"/>
<path id="Vector_12" d="M52.5403 6.90456H54.5654C55.2199 6.90456 55.7915 7.03412 56.2782 7.29534C56.7648 7.55656 57.1388 7.92227 57.4023 8.39664C57.6658 8.86893 57.7954 9.41017 57.7954 10.0183C57.7954 10.6264 57.6636 11.1677 57.4023 11.6399C57.1388 12.1122 56.7648 12.48 56.2782 12.7412C55.7915 13.0025 55.222 13.132 54.5654 13.132H52.5403V6.90247V6.90456ZM54.5399 12.2293C55.2603 12.2293 55.8192 12.0328 56.2165 11.642C56.6139 11.2512 56.8137 10.71 56.8137 10.0204C56.8137 9.33076 56.6139 8.78951 56.2165 8.39873C55.8192 8.00795 55.2603 7.81151 54.5399 7.81151H53.5136V12.2313H54.5399V12.2293Z" fill="white"/>
<path id="Vector_13" d="M59.1724 6.05196C59.0683 5.94748 59.0173 5.82627 59.0173 5.68626C59.0173 5.54624 59.0683 5.41877 59.1724 5.31637C59.2744 5.21397 59.3976 5.16382 59.54 5.16382C59.6824 5.16382 59.812 5.21397 59.9161 5.31637C60.0181 5.41877 60.0713 5.54206 60.0713 5.68626C60.0713 5.83045 60.0203 5.94748 59.9161 6.05196C59.812 6.15645 59.6866 6.2087 59.54 6.2087C59.3934 6.2087 59.2765 6.15645 59.1724 6.05196ZM59.0534 6.90458H60.0266V13.1341H59.0534V6.90458Z" fill="white"/>
<path id="Vector_14" d="M61.6267 6.90456H63.8473C64.2298 6.90456 64.5762 6.98606 64.8864 7.14697C65.1966 7.30997 65.441 7.53566 65.6216 7.82614C65.8023 8.11661 65.8915 8.44471 65.8915 8.80832C65.8915 9.22627 65.7534 9.59616 65.4793 9.91798C65.2052 10.2398 64.8609 10.4571 64.4487 10.5658L64.4402 10.6097L66.1826 13.0798V13.132H65.0585L63.3692 10.687H62.5999V13.132H61.6267V6.90247V6.90456ZM63.8197 9.80931C64.1257 9.80931 64.3849 9.71319 64.5932 9.52302C64.8014 9.33076 64.9077 9.09044 64.9077 8.79996C64.9077 8.53248 64.812 8.30051 64.6208 8.0999C64.4295 7.89928 64.1745 7.79897 63.8558 7.79897H62.5999V9.80931H63.8218H63.8197Z" fill="white"/>
<path id="Vector_15" d="M67.311 6.05196C67.2069 5.94748 67.1559 5.82627 67.1559 5.68626C67.1559 5.54624 67.2069 5.41877 67.311 5.31637C67.413 5.21397 67.5363 5.16382 67.6786 5.16382C67.821 5.16382 67.9506 5.21397 68.0547 5.31637C68.1567 5.41877 68.2099 5.54206 68.2099 5.68626C68.2099 5.83045 68.1589 5.94748 68.0547 6.05196C67.9506 6.15645 67.8252 6.2087 67.6786 6.2087C67.532 6.2087 67.4151 6.15645 67.311 6.05196ZM67.192 6.90458H68.1652V13.1341H67.192V6.90458Z" fill="white"/>
<path id="Vector_16" d="M69.7654 6.90454H70.915L73.7816 11.4811H73.8347L73.7816 10.2795V6.90454H74.7463V13.1341H73.7369L70.7301 8.32348H70.677L70.7301 9.52509V13.1362H69.7654V6.90663V6.90454Z" fill="white"/>
</g>
</g>
</g>
</g>
</g>
<defs>
<clipPath id="clip0_3_756">
<rect width="137.273" height="40" fill="white" transform="translate(0.897339)"/>
</clipPath>
</defs>
</svg>
